<?xml version="1.0" encoding="utf-8"?>
<!-- Generator: Adobe Illustrator 25.2.0, SVG Export Plug-In . SVG Version: 6.00 Build 0)  -->
<svg version="1.1" id="Layer_1" xmlns="http://www.w3.org/2000/svg" xmlns:xlink="http://www.w3.org/1999/xlink" x="0px" y="0px"
	 viewBox="0 0 50 50" style="enable-background:new 0 0 50 50;" xml:space="preserve">
<style type="text/css">
	.st0{clip-path:url(#SVGID_2_);}
	.st1{clip-path:url(#SVGID_4_);fill:#010101;}
	.st2{clip-path:url(#SVGID_4_);fill:none;stroke:#FFAF00;stroke-width:1.8692;stroke-miterlimit:10;}
</style>
<g id="Circles_1_">
	<g>
		<defs>
			<rect id="SVGID_1_" x="0" width="50" height="50"/>
		</defs>
		<clipPath id="SVGID_2_">
			<use xlink:href="#SVGID_1_"  style="overflow:visible;"/>
		</clipPath>
		<g class="st0">
			<defs>
				<rect id="SVGID_3_" x="0" width="50" height="50"/>
			</defs>
			<clipPath id="SVGID_4_">
				<use xlink:href="#SVGID_3_"  style="overflow:visible;"/>
			</clipPath>
			<path class="st1" d="M34.1,50c-8.8,0-15.9-7.1-15.9-15.9s7.1-15.9,15.9-15.9S50,25.4,50,34.1S42.9,50,34.1,50 M34.1,25.7
				c-4.6,0-8.4,3.8-8.4,8.4s3.8,8.4,8.4,8.4s8.4-3.8,8.4-8.4S38.7,25.7,34.1,25.7"/>
			<path class="st2" d="M16.8,32.7c-8.8,0-15.9-7.1-15.9-15.9S8.1,0.9,16.8,0.9s15.9,7.1,15.9,15.9S25.6,32.7,16.8,32.7z M16.8,8.4
				c-4.6,0-8.4,3.8-8.4,8.4s3.8,8.4,8.4,8.4s8.4-3.8,8.4-8.4S21.5,8.4,16.8,8.4z"/>
		</g>
	</g>
</g>
</svg>
