<svg xmlns="http://www.w3.org/2000/svg" xmlns:xlink="http://www.w3.org/1999/xlink"
	 viewBox="0 0 50 50">
	<style type="text/css">
		.st0{clip-path:url(#SVGID_2_);}
		.st1{clip-path:url(#SVGID_4_);fill:#FFAF00;}
		.st2{clip-path:url(#SVGID_4_);fill:#010101;}
	</style>
	<defs>
		<rect id="SVGID_1_" x="2.5" width="45.1" height="50"/>
	</defs>
	<clipPath id="SVGID_2_">
		<use xlink:href="#SVGID_1_"  style="overflow:visible;"/>
	</clipPath>
	<g class="st0">
		<defs>
			<rect id="SVGID_3_" x="2.5" y="0" width="45.1" height="50"/>
		</defs>
		<clipPath id="SVGID_4_">
			<use xlink:href="#SVGID_3_"  style="overflow:visible;"/>
		</clipPath>
		<path class="st1" d="M5.4,23c-0.6,0.7-1.7,0.8-2.4,0.1c-0.7-0.6-0.8-1.7-0.1-2.4s1.7-0.8,2.4-0.1C6,21.3,6.1,22.3,5.4,23"/>
		<path class="st2" d="M12.9,29.6c-0.6,0.7-1.7,0.8-2.4,0.1c-0.7-0.6-0.8-1.7-0.1-2.4c0.6-0.7,1.7-0.8,2.4-0.1
			C13.4,27.9,13.5,28.9,12.9,29.6"/>
		<path class="st1" d="M27.7,42.8c-0.6,0.7-1.7,0.8-2.4,0.1c-0.7-0.6-0.8-1.7-0.1-2.4c0.6-0.7,1.7-0.8,2.4-0.1
			C28.3,41.1,28.3,42.1,27.7,42.8"/>
		<path class="st2" d="M35.1,49.4c-0.6,0.7-1.7,0.8-2.4,0.1c-0.7-0.6-0.8-1.7-0.1-2.4c0.6-0.7,1.7-0.8,2.4-0.1
			C35.7,47.7,35.7,48.7,35.1,49.4"/>
		<path class="st1" d="M18.8,22.9c-0.6,0.7-1.7,0.8-2.4,0.1c-0.7-0.6-0.8-1.7-0.1-2.4c0.6-0.7,1.7-0.8,2.4-0.1
			C19.4,21.1,19.5,22.2,18.8,22.9"/>
		<path class="st1" d="M26.3,29.5c-0.6,0.7-1.7,0.8-2.4,0.1c-0.7-0.6-0.8-1.7-0.1-2.4c0.6-0.7,1.7-0.8,2.4-0.1
			C26.8,27.7,26.9,28.8,26.3,29.5"/>
		<path class="st2" d="M33.7,36.1c-0.6,0.7-1.7,0.8-2.4,0.1c-0.7-0.6-0.8-1.7-0.1-2.4c0.6-0.7,1.7-0.8,2.4-0.1
			C34.2,34.3,34.3,35.4,33.7,36.1"/>
		<path class="st2" d="M24.8,16.2c-0.6,0.7-1.7,0.8-2.4,0.1c-0.7-0.6-0.8-1.7-0.1-2.4c0.6-0.7,1.7-0.8,2.4-0.1
			C25.4,14.4,25.5,15.5,24.8,16.2"/>
		<path class="st1" d="M32.3,22.8c-0.6,0.7-1.7,0.8-2.4,0.1c-0.7-0.6-0.8-1.7-0.1-2.4c0.6-0.7,1.7-0.8,2.4-0.1
			C32.8,21,32.9,22.1,32.3,22.8"/>
		<path class="st1" d="M39.7,29.4c-0.6,0.7-1.7,0.8-2.4,0.1c-0.7-0.6-0.8-1.7-0.1-2.4c0.6-0.7,1.7-0.8,2.4-0.1
			C40.2,27.6,40.3,28.7,39.7,29.4"/>
		<path class="st1" d="M47.1,36c-0.6,0.7-1.7,0.8-2.4,0.1c-0.7-0.6-0.8-1.7-0.1-2.4c0.6-0.7,1.7-0.8,2.4-0.1
			C47.7,34.2,47.7,35.3,47.1,36"/>
		<path class="st2" d="M23.4,2.8C22.8,3.5,21.7,3.6,21,3c-0.7-0.6-0.8-1.7-0.1-2.4c0.6-0.7,1.7-0.8,2.4-0.1C24,1.1,24,2.1,23.4,2.8
			"/>
		<path class="st1" d="M38.3,16c-0.6,0.7-1.7,0.8-2.4,0.1c-0.7-0.6-0.8-1.7-0.1-2.4c0.6-0.7,1.7-0.8,2.4-0.1
			C38.8,14.3,38.9,15.3,38.3,16"/>
		<path class="st2" d="M45.7,22.6c-0.6,0.7-1.7,0.8-2.4,0.1c-0.7-0.6-0.8-1.7-0.1-2.4c0.6-0.7,1.7-0.8,2.4-0.1
			C46.2,20.8,46.3,21.9,45.7,22.6"/>
	</g>
</svg>
