<svg xmlns="http://www.w3.org/2000/svg" viewBox="0 0 64 64">
  <path d="M61,2H3A1,1,0,0,0,2,3V61a1,1,0,0,0,1,1H61a1,1,0,0,0,1-1V3A1,1,0,0,0,61,2ZM60,60H4V12H60Zm0-50H4V4H60Z"/>
  <path d="M8,6H7A1,1,0,0,0,7,8H8A1,1,0,0,0,8,6Z"/>
  <path d="M13,6H12a1,1,0,0,0,0,2h1a1,1,0,0,0,0-2Z"/>
  <path d="M18,6H17a1,1,0,0,0,0,2h1a1,1,0,0,0,0-2Z"/>
  <path d="M39,18h1a1,1,0,0,0,0-2H39a1,1,0,0,0,0,2Z"/>
  <path d="M55,32H54a1,1,0,0,0,0,2h1a1,1,0,0,0,0-2Z"/>
  <path d="M39,34H50a1,1,0,0,0,0-2H39a1,1,0,0,0,0,2Z"/>
  <path d="M39,30H55a1,1,0,0,0,0-2H39a1,1,0,0,0,0,2Z"/>
  <path d="M39,26H55a1,1,0,0,0,0-2H39a1,1,0,0,0,0,2Z"/>
  <path d="M39,22H55a1,1,0,0,0,0-2H39a1,1,0,0,0,0,2Z"/>
  <path d="M44,18H55a1,1,0,0,0,0-2H44a1,1,0,0,0,0,2Z"/>
  <path d="M9,40h1a1,1,0,0,0,0-2H9a1,1,0,0,0,0,2Z"/>
  <path d="M55,54H54a1,1,0,0,0,0,2h1a1,1,0,0,0,0-2Z"/>
  <path d="M9,56H50a1,1,0,0,0,0-2H9a1,1,0,0,0,0,2Z"/>
  <path d="M9,52H55a1,1,0,0,0,0-2H9a1,1,0,0,0,0,2Z"/>
  <path d="M9,48H55a1,1,0,0,0,0-2H9a1,1,0,0,0,0,2Z"/>
  <path d="M9,44H55a1,1,0,0,0,0-2H9a1,1,0,0,0,0,2Z"/>
  <path d="M55,38H14a1,1,0,0,0,0,2H55a1,1,0,0,0,0-2Z"/>
  <path d="M33,16H9a1,1,0,0,0-1,1V33a1,1,0,0,0,1,1H33a1,1,0,0,0,1-1V17A1,1,0,0,0,33,16ZM10.87,32,17,22.8,23.13,32Zm14.67,0-1.2-1.79L27,26.67,31,32ZM32,30l-4.2-5.6A1.014,1.014,0,0,0,27,24a1,1,0,0,0-.8.4l-3.03,4.05-5.34-8a1.03,1.03,0,0,0-1.66,0L10,29.7V18H32Z"/>
  <circle cx="23" cy="22" r="2"/>
</svg>
